Coordinates
version=1
nRows=14
nColumns=36
inDegrees=yes

Units are S.I. units (second, meters, Newtons, ...)
If the header above contains a line with 'inDegrees', this indicates whether rotational values are in degrees (yes) or radians (no).

endheader
time	pelvis_tilt	pelvis_list	pelvis_rotation	pelvis_tx	pelvis_ty	pelvis_tz	hip_flexion_r	hip_adduction_r	hip_rotation_r	knee_angle_r	knee_angle_r_beta	ankle_angle_r	subtalar_angle_r	mtp_angle_r	hip_flexion_l	hip_adduction_l	hip_rotation_l	knee_angle_l	knee_angle_l_beta	ankle_angle_l	subtalar_angle_l	mtp_angle_l	lumbar_extension	lumbar_bending	lumbar_rotation	arm_flex_r	arm_add_r	arm_rot_r	elbow_flex_r	pro_sup_r	arm_flex_l	arm_add_l	arm_rot_l	elbow_flex_l	pro_sup_l
      5.91666670	     -0.29144126	     11.42569651	     -3.62159474	      0.12925924	      0.94366379	      0.06376156	      5.98095639	     -2.58811368	      9.08723450	      8.50463423	      0.14843387	      6.23375897	     -1.86267778	     -7.49999987	     37.50181278	      0.59869402	     -6.23190193	     14.60613110	      0.25492508	    -12.41078628	    -13.57708359	     -7.49999987	     -7.95819310	     -2.58810099	      9.97801333	     73.40041592	      6.80779548	     51.41041581	    140.11238666	     96.83071789	     87.04462171	     14.52207643	     71.12014258	    112.67188287	     71.68273972
      5.93333330	     -0.44917982	     11.39149603	     -3.31545119	      0.13010606	      0.94380688	      0.06346305	      6.06288005	     -2.59147685	      8.74944162	      8.57566007	      0.14967350	      6.42566245	     -1.88326615	     -7.49999987	     37.80320345	      0.67904185	     -6.22934199	     14.76034847	      0.25761668	    -12.54217700	    -13.82404348	     -7.49999987	     -8.04810831	     -2.43480409	     10.34392548	     72.95248091	      7.81613392	     49.56010406	    140.42323249	     95.49657169	     87.23806093	     14.97638854	     71.23664846	    112.88448823	     71.35611608
      5.95000000	     -0.39213789	     11.34064557	     -3.17912313	      0.12967679	      0.94572643	      0.06321581	      5.85345400	     -2.58476841	      8.71353481	      8.41575195	      0.14688258	      6.33527722	     -1.84923003	     -7.49999987	     37.66921867	      0.71845829	     -6.12842044	     14.65609187	      0.25579706	    -12.54502323	    -13.73094848	     -7.49999987	     -8.23219402	     -2.36817337	     10.85660481	     72.85682607	      7.75691538	     48.83412362	    140.80474982	     95.97205540	     87.38448029	     15.39981581	     71.29482869	    112.94285855	     72.88206145
      5.96666670	     -0.61136222	     11.32990115	     -3.06292670	      0.12903365	      0.94322542	      0.06209982	      6.18839266	     -2.56437304	      8.50481005	      8.57018552	      0.14957795	      6.44841814	     -1.69432300	     -7.49999987	     38.05924476	      0.76870341	     -6.20613975	     14.77156085	      0.25781237	    -12.44228649	    -13.82670418	     -7.49999987	     -7.93946112	     -2.20716919	      9.85513895	     71.41436548	      9.48598794	     47.67716765	    139.80012693	     94.81144195	     87.11297336	     14.46657123	     71.48611384	    113.65553017	     72.43675451
      5.98333330	     -0.31958064	     11.35135748	     -3.04641637	      0.12979483	      0.94214475	      0.06205056	      5.77213340	     -2.63401886	      8.41940762	      8.55518518	      0.14931615	      6.69492809	     -1.72202107	     -7.49999987	     37.66885928	      0.86920470	     -6.15595126	     14.57680988	      0.25441333	    -12.41957042	    -13.47898424	     -7.49999987	     -7.87767759	     -2.37932847	     10.08443839	     72.18447675	      9.34819762	     48.89623639	    140.29783423	     93.90455716	     87.34542544	     14.47853525	     71.47540753	    113.90741819	     72.05931673
      6.00000000	     -0.38747947	     11.33267161	     -2.83432343	      0.13067947	      0.94452191	      0.06294790	      5.70451717	     -2.63399224	      8.37609477	      8.30900929	      0.14501957	      6.48103887	     -1.90780967	     -7.49999987	     37.62901183	      1.02584611	     -6.27126471	     14.36133957	      0.25065266	    -12.36596552	    -13.23403539	     -7.49999987	     -7.39484181	     -2.30939135	     10.54111971	     73.15854589	      8.75210990	     50.21807742	    140.69711957	     93.92526597	     86.82145588	     14.21784256	     71.57939609	    114.83851548	     72.32606341
      6.01666670	     -0.16388566	     11.23413724	     -2.58486109	      0.13179687	      0.94126187	      0.06251590	      5.31628902	     -2.52710669	      8.58442370	      7.99436187	      0.13952794	      6.37856178	     -1.99152958	     -7.49999987	     37.34488992	      1.13587979	     -6.32019924	     14.03625148	      0.24497880	    -12.07298895	    -12.76552588	     -7.49999987	     -7.19497411	     -2.35949201	     11.74408125	     74.52953575	      8.02804535	     52.00237638	    142.56689779	     97.54705470	     86.82257676	     15.43750415	     71.90276294	    115.07901986	     76.22387394
      6.03333330	     -0.14631854	     11.20122961	     -2.49443000	      0.12974850	      0.94224828	      0.06068168	      5.37195525	     -2.49202724	      8.57066877	      8.12186794	      0.14175334	      6.23213732	     -2.23308552	     -7.49999987	     37.46475497	      1.23392315	     -6.44172598	     13.92225327	      0.24298916	    -12.46694250	    -12.94116458	     -7.49999987	     -7.36482420	     -2.36728686	     11.92068185	     75.20638886	      7.18830871	     52.41995513	    143.09711489	     96.21505016	     87.11315468	     15.39758784	     71.88637918	    114.12349260	     75.44268909
      6.05000000	     -0.00400943	     11.03519394	     -2.40258266	      0.12944891	      0.94223599	      0.06132696	      5.37940218	     -2.32588327	      8.82487008	      8.10484279	      0.14145619	      5.97063115	     -2.27841707	     -7.49999987	     37.29637078	      1.21627689	     -6.39504546	     13.74071203	      0.23982067	    -12.52075140	    -12.63185852	     -7.49999987	     -7.41976495	     -2.25051084	     12.25705523	     76.16750095	      7.00100594	     54.05953366	    144.00860047	     98.76368238	     87.10884620	     15.97863963	     71.94704783	    113.88147813	     77.08004991
      6.06666670	      0.01148315	     11.04478371	     -2.46579466	      0.13102554	      0.94677470	      0.06207997	      5.16722749	     -2.35171156	      9.19386816	      7.76819399	      0.13558056	      5.43167061	     -2.37834807	     -7.49999987	     37.08451966	      1.27560319	     -6.36259278	     13.38990865	      0.23369799	    -12.90814962	    -12.93338704	     -7.49999987	     -7.37279049	     -2.28007538	     12.22778337	     76.67081383	      6.70593525	     55.80130479	    143.56201934	     97.35168314	     86.75883620	     15.82222694	     71.96375324	    113.85647779	     75.91492697
      6.08333330	      0.06315607	     11.00976071	     -2.54556989	      0.13112542	      0.94650640	      0.06171578	      4.96037619	     -2.34498829	      9.46066299	      7.41386302	      0.12939632	      5.32469014	     -2.19078966	     -7.49999987	     36.75617960	      1.25078996	     -6.72602335	     12.89180776	      0.22500449	    -13.33220943	    -13.17885783	     -7.49999987	     -7.24496026	     -2.27861183	     11.85100138	     76.14091832	      6.57979978	     55.97596764	    143.16294320	     99.12480353	     86.54455613	     15.49049260	     71.95901232	    113.86821499	     76.08634367
      6.10000000	      0.01464590	     10.97699365	     -2.36682689	      0.13072693	      0.94438940	      0.06027633	      5.01302334	     -2.36423858	      9.44286026	      7.45211628	      0.13006397	      5.14248312	     -2.12071586	     -7.49999987	     36.91004163	      1.39367550	     -6.88762794	     12.85417063	      0.22434760	    -13.46057869	    -13.50537976	     -7.49999987	     -7.57255627	     -2.14856682	     11.86893693	     75.33590066	      6.92211329	     53.55705276	    143.31917914	     97.67397913	     87.12115117	     15.91159627	     71.89759112	    113.53849411	     75.25593727
      6.11666670	     -0.21987663	     10.96250076	     -2.31779245	      0.13030124	      0.94424393	      0.05967819	      5.41185369	     -2.37599153	      9.46820408	      7.70579476	      0.13449149	      5.20784992	     -1.93729197	     -7.49999987	     37.36453458	      1.40528803	     -7.26899002	     12.97515152	      0.22645911	    -13.59917731	    -13.50621452	     -7.49999987	     -7.44775766	     -2.02744262	     12.38863540	     74.13622447	      7.42171088	     51.46554991	    143.91374683	     95.77686715	     87.06552816	     16.38270453	     71.84523113	    113.60410489	     74.23533838
      6.13333330	      0.11940063	     10.95055767	     -2.33797762	      0.12999971	      0.94410240	      0.05935420	      5.17064345	     -2.39953660	      9.54841278	      7.88442810	      0.13760923	      5.01878750	     -2.08328349	     -7.49999987	     37.08550827	      1.54590533	     -7.26600924	     12.84922257	      0.22426124	    -14.03660074	    -13.85397556	     -7.49999987	     -7.99204381	     -2.02251648	     12.26073424	     73.29117603	      8.58688295	     49.52750914	    143.93644660	     94.45428583	     87.30009124	     16.25575416	     71.81759965	    113.07625143	     73.83664709
